<svg width="24" height="24" viewBox="0 0 24 24" fill="none" xmlns="http://www.w3.org/2000/svg">
<rect width="24" height="24" fill="#F69DBA"/>
<path d="M17.503 12.033L13.2619 9.57501L15.4 4.44401C15.4746 4.29161 15.5093 4.12278 15.5009 3.95331C15.4925 3.78384 15.4412 3.61928 15.3519 3.47501C15.2626 3.33074 15.1381 3.21149 14.9902 3.12842C14.8422 3.04535 14.6756 3.00116 14.5059 3.00001C14.2804 2.99916 14.0612 3.07457 13.8839 3.21401L13.8139 3.27401L6.31395 10.374C6.2012 10.4811 6.11492 10.6129 6.06193 10.7591C6.00895 10.9053 5.9907 11.0618 6.00865 11.2162C6.0266 11.3707 6.08024 11.5188 6.16534 11.649C6.25044 11.7791 6.36465 11.8876 6.49895 11.966L10.7409 14.426L8.57795 19.616C8.48873 19.8277 8.4752 20.0637 8.53964 20.2842C8.60409 20.5047 8.74256 20.6963 8.93173 20.8266C9.12091 20.957 9.34922 21.0181 9.57822 20.9998C9.80722 20.9815 10.0229 20.8848 10.1889 20.726L17.6889 13.624C17.8015 13.5169 17.8875 13.385 17.9403 13.2389C17.9931 13.0928 18.0112 12.9364 17.9931 12.7821C17.9751 12.6278 17.9214 12.4798 17.8363 12.3498C17.7513 12.2198 17.6371 12.1113 17.503 12.033Z" fill="#FAF9F6"/>
</svg>
